<?xml version="1.0" encoding="UTF-8" standalone="no"?>
<!DOCTYPE svg PUBLIC "-//W3C//DTD SVG 1.1//EN" "http://www.w3.org/Graphics/SVG/1.1/DTD/svg11.dtd">
<svg width="100%" height="100%" viewBox="0 0 903 903" version="1.1" xmlns="http://www.w3.org/2000/svg" xmlns:xlink="http://www.w3.org/1999/xlink" xml:space="preserve" xmlns:serif="http://www.serif.com/" style="fill-rule:evenodd;clip-rule:evenodd;stroke-linejoin:round;stroke-miterlimit:2;">
    <g transform="matrix(1,0,0,1,-397.002,-1697.77)">
        <path d="M1299.69,1697.77L1299.69,2600.46L397.002,2600.46L397.002,1697.77L1299.69,1697.77ZM592.095,1916.33L554.986,1985.77L580.083,1985.77L655.864,1838.89L631.06,1838.89L603.911,1893.58L574.81,1838.89L549.321,1838.89L592.095,1916.33ZM670.806,1838.89L670.806,1934.01L692.876,1934.01L692.876,1888.11C692.876,1876.26 694.374,1867.96 697.368,1863.21C700.428,1858.39 705.604,1855.98 712.896,1855.98C719.601,1855.98 724.224,1857.8 726.763,1861.45C729.367,1865.03 730.669,1871.51 730.669,1880.88L730.669,1934.01L752.739,1934.01L752.739,1875.71C752.739,1862.3 750.07,1852.63 744.732,1846.7C738.547,1839.74 729.92,1836.25 718.853,1836.25C709.217,1836.25 700.558,1840.06 692.876,1847.68L692.876,1838.89L670.806,1838.89ZM695.904,2400.66C695.904,2415.24 700.721,2427.35 710.357,2436.99C719.992,2446.75 731.939,2451.63 746.196,2451.63C760.585,2451.63 772.726,2446.85 782.622,2437.28C792.453,2427.64 797.368,2415.7 797.368,2401.44C797.368,2387.31 792.486,2375.4 782.72,2365.7C772.824,2356 760.78,2351.15 746.587,2351.15C732.46,2351.15 720.48,2355.96 710.65,2365.6C700.819,2375.24 695.904,2386.92 695.904,2400.66ZM718.364,2401.05C718.364,2392.19 720.969,2384.97 726.177,2379.37C731.385,2373.77 738.189,2370.97 746.587,2370.97C755.116,2370.97 761.984,2373.77 767.193,2379.37C772.336,2384.9 774.907,2392.29 774.907,2401.54C774.907,2410.78 772.336,2418.17 767.193,2423.7C762.049,2429.24 755.181,2432.01 746.587,2432.01C738.058,2432.01 731.19,2429.21 725.982,2423.61C720.904,2418.07 718.364,2410.55 718.364,2401.05ZM807.232,1916.33L770.122,1985.77L795.22,1985.77L871.001,1838.89L846.196,1838.89L819.048,1893.58L789.946,1838.89L764.458,1838.89L807.232,1916.33ZM627.349,2353.78L627.349,2448.9L649.321,2448.9L649.321,2399.58C649.321,2381.49 655.311,2372.43 667.29,2372.43C671.262,2372.43 675.331,2373.93 679.497,2376.93L689.556,2356.81C683.241,2353.03 677.186,2351.15 671.392,2351.15C667.03,2351.15 663.254,2351.96 660.064,2353.59C656.939,2355.15 653.358,2358.05 649.321,2362.28L649.321,2353.78L627.349,2353.78ZM1099.03,2374.29L1116.12,2374.29L1116.12,2353.78L1099.03,2353.78L1099.03,2318.92L1077.06,2318.92L1077.06,2353.78L1067.68,2353.78L1067.68,2374.29L1077.06,2374.29L1077.06,2448.9L1099.03,2448.9L1099.03,2374.29ZM1186.33,2369.99C1180.41,2357.43 1171.36,2351.15 1159.18,2351.15C1150.92,2351.15 1143.88,2353.85 1138.09,2359.25C1132.43,2364.66 1129.6,2371.49 1129.6,2379.76C1129.6,2386.01 1131.26,2391.12 1134.58,2395.09C1137.18,2398.22 1141.67,2401.34 1148.05,2404.47C1150.33,2405.57 1152.58,2406.65 1154.79,2407.69C1157,2408.73 1159.22,2409.8 1161.43,2410.91C1167.16,2414.3 1170.03,2417.94 1170.03,2421.85C1170.03,2428.62 1166.31,2432.01 1158.89,2432.01C1155.18,2432.01 1151.99,2430.77 1149.32,2428.29C1147.95,2427.06 1145.97,2424.16 1143.36,2419.6L1124.61,2428.29C1131.26,2443.85 1142.55,2451.63 1158.5,2451.63C1167.81,2451.63 1175.75,2448.7 1182.33,2442.85C1189.1,2436.66 1192.49,2428.98 1192.49,2419.8C1192.49,2412.64 1190.47,2406.94 1186.43,2402.71C1182.39,2398.48 1174.55,2393.85 1162.9,2388.84C1154.43,2385.26 1150.2,2381.65 1150.2,2378C1150.2,2375.92 1150.92,2374.21 1152.35,2372.88C1153.78,2371.54 1155.51,2370.87 1157.53,2370.87C1161.76,2370.87 1165.31,2373.8 1168.17,2379.66L1186.33,2369.99ZM529.4,2500.66L529.4,2438.26C538.189,2447.18 548.15,2451.63 559.282,2451.63C572.173,2451.63 582.85,2446.91 591.314,2437.47C599.842,2427.97 604.107,2416.09 604.107,2401.83C604.107,2387.25 599.81,2375.17 591.216,2365.6C582.752,2355.96 571.978,2351.15 558.892,2351.15C547.889,2351.15 538.058,2355.47 529.4,2364.13L529.4,2353.78L507.427,2353.78L507.427,2500.66L529.4,2500.66ZM581.646,2401.93C581.646,2410.52 579.107,2417.68 574.029,2423.41C569.081,2429.14 562.798,2432.01 555.181,2432.01C547.108,2432.01 540.598,2429.17 535.65,2423.51C530.637,2417.72 528.13,2410.36 528.13,2401.44C528.13,2392.32 530.637,2384.97 535.65,2379.37C540.663,2373.77 547.206,2370.97 555.279,2370.97C562.896,2370.97 569.211,2373.87 574.224,2379.66C579.172,2385.39 581.646,2392.81 581.646,2401.93ZM957.036,2406.52L957.134,2401.34C957.134,2385.65 953.098,2373.38 945.025,2364.53C936.887,2355.61 925.819,2351.15 911.821,2351.15C897.954,2351.15 886.821,2355.74 878.423,2364.92C870.09,2374.22 865.923,2386.4 865.923,2401.44C865.923,2416.61 870.22,2428.78 878.814,2437.96C887.407,2447.08 898.801,2451.63 912.993,2451.63C917.941,2451.63 922.531,2451.11 926.763,2450.07C930.995,2449.03 934.933,2447.39 938.579,2445.14C942.225,2442.89 945.643,2440.03 948.833,2436.55C952.023,2433.06 955.051,2428.88 957.915,2424L939.361,2413.65C934.868,2420.68 930.864,2425.49 927.349,2428.1C923.768,2430.7 919.243,2432.01 913.775,2432.01C906.743,2432.01 900.982,2429.73 896.489,2425.17C891.997,2420.55 889.458,2414.33 888.872,2406.52L957.036,2406.52ZM934.478,2388.55L890.337,2388.55C891.053,2385.81 892.095,2383.37 893.462,2381.22C894.829,2379.08 896.473,2377.24 898.394,2375.71C900.314,2374.18 902.446,2373.01 904.79,2372.19C907.134,2371.38 909.64,2370.97 912.31,2370.97C924.029,2370.97 931.418,2376.83 934.478,2388.55ZM817.29,2314.23C817.29,2318.27 818.69,2321.69 821.489,2324.49C824.289,2327.28 827.674,2328.68 831.646,2328.68C835.617,2328.68 838.97,2327.28 841.704,2324.49C844.504,2321.69 845.904,2318.3 845.904,2314.33C845.904,2310.36 844.504,2307.01 841.704,2304.27C838.905,2301.47 835.519,2300.07 831.548,2300.07C827.642,2300.07 824.289,2301.47 821.489,2304.27C818.69,2307.07 817.29,2310.39 817.29,2314.23ZM530.083,1859.4L547.173,1859.4L547.173,1838.89L530.083,1838.89L530.083,1804.03L508.111,1804.03L508.111,1838.89L498.736,1838.89L498.736,1859.4L508.111,1859.4L508.111,1934.01L530.083,1934.01L530.083,1859.4ZM1055.08,2357.88C1046.75,2353.39 1037.9,2351.15 1028.52,2351.15C1013.94,2351.15 1001.63,2356.03 991.607,2365.79C981.581,2375.56 976.568,2387.54 976.568,2401.73C976.568,2415.93 981.515,2427.81 991.411,2437.38C1001.31,2446.88 1013.61,2451.63 1028.33,2451.63C1037.25,2451.63 1046.16,2449.32 1055.08,2444.7L1055.08,2415.7C1049.81,2422.08 1045.22,2426.37 1041.31,2428.59C1037.28,2430.87 1032.62,2432.01 1027.35,2432.01C1019.08,2432.01 1012.28,2429.14 1006.94,2423.41C1001.67,2417.68 999.029,2410.36 999.029,2401.44C999.029,2392.72 1001.76,2385.46 1007.23,2379.66C1012.7,2373.87 1019.57,2370.97 1027.84,2370.97C1033.11,2370.97 1037.7,2372.14 1041.61,2374.49C1045.58,2376.76 1050.07,2380.96 1055.08,2387.08L1055.08,2357.88ZM842.583,2353.78L820.611,2353.78L820.611,2500.66L842.583,2500.66L842.583,2353.78Z"/>
    </g>
</svg>
