<?xml version="1.0" encoding="UTF-8" standalone="no"?>
<!DOCTYPE svg PUBLIC "-//W3C//DTD SVG 1.1//EN" "http://www.w3.org/Graphics/SVG/1.1/DTD/svg11.dtd">
<svg width="100%" height="100%" viewBox="0 0 1086 1086" version="1.1" xmlns="http://www.w3.org/2000/svg" xmlns:xlink="http://www.w3.org/1999/xlink" xml:space="preserve" xmlns:serif="http://www.serif.com/" style="fill-rule:evenodd;clip-rule:evenodd;stroke-linejoin:round;stroke-miterlimit:2;">
    <g transform="matrix(1,0,0,1,-362.8,-1977.49)">
        <path d="M1448.45,1977.49L1448.45,3063.14L362.8,3063.14L362.8,1977.49L1448.45,1977.49ZM959.701,2716.28C959.701,2722.63 961.903,2728.01 966.308,2732.41C970.712,2736.82 976.038,2739.02 982.286,2739.02C988.534,2739.02 993.809,2736.82 998.111,2732.41C1002.51,2728.01 1004.72,2722.68 1004.72,2716.43C1004.72,2710.19 1002.51,2704.91 998.111,2700.61C993.706,2696.2 988.38,2694 982.132,2694C975.987,2694 970.712,2696.2 966.308,2700.61C961.903,2705.01 959.701,2710.24 959.701,2716.28ZM510.155,2162.72L537.042,2162.72L537.042,2130.46L510.155,2130.46L510.155,2075.61L475.586,2075.61L475.586,2130.46L460.837,2130.46L460.837,2162.72L475.586,2162.72L475.586,2280.1L510.155,2280.1L510.155,2162.72ZM1231.64,2778.5L1231.64,2928.15L1266.36,2928.15L1266.36,2855.94C1266.36,2837.3 1268.72,2824.24 1273.43,2816.76C1278.25,2809.18 1286.39,2805.39 1297.86,2805.39C1308.41,2805.39 1315.68,2808.26 1319.68,2813.99C1323.77,2819.63 1325.82,2829.82 1325.82,2844.57L1325.82,2928.15L1360.54,2928.15L1360.54,2836.43C1360.54,2815.33 1356.34,2800.12 1347.94,2790.8C1338.21,2779.84 1324.64,2774.36 1307.23,2774.36C1292.07,2774.36 1278.45,2780.35 1266.36,2792.33L1266.36,2778.5L1231.64,2778.5ZM999.493,2778.5L964.925,2778.5L964.925,2928.15L999.493,2928.15L999.493,2778.5ZM607.715,2252.29L549.333,2361.53L588.818,2361.53L708.041,2130.46L669.017,2130.46L626.306,2216.49L580.521,2130.46L540.422,2130.46L607.715,2252.29ZM584.823,2668.65L584.823,2795.87C570.996,2781.53 555.325,2774.36 537.81,2774.36C517.632,2774.36 500.885,2781.88 487.57,2796.94C474.152,2811.89 467.443,2830.54 467.443,2852.87C467.443,2875.71 474.152,2894.76 487.57,2910.02C501.09,2924.97 518.093,2932.45 538.578,2932.45C555.786,2932.45 571.201,2925.79 584.823,2912.48L584.823,2928.15L619.546,2928.15L619.546,2668.65L584.823,2668.65ZM502.78,2852.87C502.78,2839.45 506.724,2828.18 514.61,2819.07C522.6,2810.05 532.535,2805.55 544.416,2805.55C557.015,2805.55 567.257,2810 575.144,2818.91C583.031,2828.03 586.974,2839.6 586.974,2853.63C586.974,2867.67 583.031,2879.24 575.144,2888.36C567.257,2897.16 556.912,2901.57 544.109,2901.57C532.125,2901.57 522.19,2897.01 514.303,2887.89C506.621,2878.88 502.78,2867.2 502.78,2852.87ZM924.211,2804.01C914.89,2784.24 900.653,2774.36 881.499,2774.36C868.491,2774.36 857.429,2778.61 848.313,2787.11C839.402,2795.61 834.947,2806.36 834.947,2819.37C834.947,2829.2 837.559,2837.24 842.782,2843.49C846.879,2848.41 853.947,2853.33 863.984,2858.24C867.569,2859.98 871.103,2861.67 874.585,2863.31C878.068,2864.95 881.55,2866.64 885.033,2868.38C894.046,2873.71 898.553,2879.45 898.553,2885.59C898.553,2896.24 892.715,2901.57 881.038,2901.57C875.2,2901.57 870.181,2899.62 865.982,2895.73C863.831,2893.78 860.707,2889.23 856.61,2882.06L827.111,2895.73C837.559,2920.21 855.329,2932.45 880.424,2932.45C895.071,2932.45 907.566,2927.84 917.911,2918.62C928.564,2908.89 933.89,2896.81 933.89,2882.36C933.89,2871.1 930.715,2862.14 924.364,2855.48C918.014,2848.82 905.672,2841.55 887.337,2833.66C874.022,2828.03 867.364,2822.34 867.364,2816.61C867.364,2813.33 868.491,2810.64 870.744,2808.54C872.998,2806.44 875.712,2805.39 878.887,2805.39C885.545,2805.39 891.127,2810 895.634,2819.22L924.211,2804.01ZM1188.01,2924.61L1188.01,2778.5L1153.44,2778.5L1153.44,2795.4C1140.94,2781.37 1125.27,2774.36 1106.43,2774.36C1084.92,2774.36 1067.61,2782.45 1054.5,2798.63C1042.31,2813.89 1036.21,2832.43 1036.21,2854.25C1036.21,2876.68 1042.77,2895.37 1055.88,2910.33C1068.89,2925.08 1085.58,2932.45 1105.96,2932.45C1123.89,2932.45 1139.71,2925.43 1153.44,2911.4L1153.44,2932.3C1153.44,2963.33 1140.79,2978.85 1115.49,2978.85C1101.77,2978.85 1091.32,2974.19 1084.15,2964.87C1081.08,2960.87 1078.87,2955.19 1077.54,2947.81L1042.82,2947.81C1044.87,2967.38 1052.55,2982.69 1065.87,2993.75C1078.77,3004.51 1095.21,3009.88 1115.18,3009.88C1138.84,3009.88 1157.43,3002.1 1170.95,2986.53C1178.12,2978.44 1182.94,2968.76 1185.4,2957.49C1186.21,2953.4 1186.86,2948.66 1187.32,2943.28C1187.78,2937.9 1188.01,2931.68 1188.01,2924.61ZM1154.82,2853.63C1154.82,2867.26 1151.29,2878.42 1144.22,2887.13C1136.54,2896.76 1126.09,2901.57 1112.88,2901.57C1099.67,2901.57 1089.32,2896.81 1081.84,2887.28C1074.98,2878.57 1071.55,2867.41 1071.55,2853.79C1071.55,2839.96 1074.98,2828.69 1081.84,2819.99C1089.42,2810.26 1099.77,2805.39 1112.88,2805.39C1125.17,2805.39 1135.26,2809.85 1143.14,2818.76C1150.93,2827.46 1154.82,2839.09 1154.82,2853.63ZM799.456,2861.47L799.61,2853.33C799.61,2828.64 793.259,2809.33 780.559,2795.4C767.755,2781.37 750.343,2774.36 728.322,2774.36C706.505,2774.36 688.99,2781.58 675.777,2796.02C662.667,2810.67 656.112,2829.82 656.112,2853.48C656.112,2877.35 662.872,2896.5 676.392,2910.94C689.912,2925.28 707.836,2932.45 730.165,2932.45C737.95,2932.45 745.171,2931.63 751.828,2929.99C758.486,2928.35 764.683,2925.77 770.419,2922.23C776.154,2918.7 781.532,2914.19 786.551,2908.71C791.569,2903.23 796.332,2896.65 800.839,2888.97L771.648,2872.68C764.58,2883.75 758.281,2891.33 752.75,2895.42C747.117,2899.52 739.998,2901.57 731.394,2901.57C720.332,2901.57 711.268,2897.98 704.2,2890.81C697.133,2883.54 693.138,2873.76 692.217,2861.47L799.456,2861.47ZM763.966,2833.2L694.521,2833.2C695.648,2828.9 697.287,2825.06 699.438,2821.68C701.588,2818.3 704.175,2815.4 707.196,2813C710.218,2810.59 713.572,2808.74 717.26,2807.47C720.947,2806.18 724.89,2805.55 729.09,2805.55C747.526,2805.55 759.152,2814.76 763.966,2833.2ZM946.181,2252.29L887.798,2361.53L927.283,2361.53L1046.51,2130.46L1007.48,2130.46L964.771,2216.49L918.987,2130.46L878.887,2130.46L946.181,2252.29ZM731.548,2130.46L731.548,2280.1L766.27,2280.1L766.27,2207.89C766.27,2189.25 768.626,2176.19 773.338,2168.71C778.152,2161.13 786.294,2157.34 797.766,2157.34C808.316,2157.34 815.588,2160.21 819.583,2165.95C823.68,2171.58 825.728,2181.77 825.728,2196.52L825.728,2280.1L860.451,2280.1L860.451,2188.38C860.451,2167.28 856.251,2152.07 847.852,2142.75C838.122,2131.79 824.55,2126.31 807.138,2126.31C791.979,2126.31 778.357,2132.3 766.27,2144.28L766.27,2130.46L731.548,2130.46Z"/>
    </g>
</svg>
